<svg xmlns="http://www.w3.org/2000/svg" width="512" height="512" viewBox="0 0 512 512"><path fill="#FFF" d="M240.209 151.943c7.829 10.879 11.745 23.897 11.745 39.059 0 15.624-3.952 28.181-11.851 37.67-4.418 5.325-10.92 10.184-19.519 14.582 13.058 4.745 22.914 12.269 29.559 22.568 6.647 10.3 9.97 22.799 9.97 37.496 0 15.161-3.8 28.761-11.394 40.796-4.834 7.987-10.874 14.698-18.121 20.138-8.172 6.25-17.81 10.532-28.913 12.846-11.105 2.316-23.158 3.471-36.158 3.471H50.234v-255.88h123.659c31.2.462 53.306 9.547 66.316 27.254zm-138.937 17.185v56.42h62.19c11.109 0 20.13-2.114 27.059-6.337 6.929-4.223 10.394-11.717 10.394-22.479 0-11.922-4.581-19.792-13.743-23.61-7.906-2.662-17.983-3.994-30.239-3.994h-55.661zm0 98.776v68.223h62.122c11.094 0 19.733-1.501 25.913-4.514 11.21-5.553 16.816-16.201 16.816-31.94 0-13.31-5.435-22.452-16.3-27.427-6.067-2.778-14.588-4.224-25.572-4.342h-62.979zm311.533-72.721c13.198 5.913 24.103 15.243 32.7 27.994 7.747 11.24 12.773 24.278 15.073 39.115 1.333 8.694 1.874 21.213 1.632 37.554H324.396c.767 18.981 7.364 32.289 19.788 39.926 7.557 4.749 16.645 7.12 27.276 7.12 11.271 0 20.427-2.891 27.472-8.681 3.842-3.123 7.237-7.465 10.183-13.014h50.513c-1.332 11.219-7.446 22.617-18.34 34.193-16.952 18.402-40.682 27.603-71.189 27.603-25.183 0-47.399-7.761-66.648-23.281-19.252-15.522-28.878-40.772-28.878-75.757 0-32.775 8.688-57.912 26.07-75.403 17.374-17.489 39.932-26.238 67.665-26.238 16.462 0 31.301 2.957 44.497 8.869zm-74.015 42.739c-6.993 7.208-11.382 16.968-13.178 29.29h85.235c-.901-13.136-5.292-23.098-13.178-29.898-7.89-6.802-17.671-10.205-29.349-10.205-12.696 0-22.537 3.609-29.53 10.813zm81.882-98.533H309.491v25.843h111.181v-25.843z"/></svg>