<svg xmlns="http://www.w3.org/2000/svg" width="791.363" height="465.131" viewBox="0 0 791.363 465.131"><path fill="#F5F4E9" d="M68.955 33.108c9.983 0 18.895 9.528 18.895 28.586 0 19.05-16.319 23.29-16.319 23.29v31.138c24.182 4.545 21.467 24.197 20.262 45.978-1.221 21.772-22.681 23.58-22.681 23.58H34.024V33.265s24.949-.157 34.931-.157zm31.98 66.345c3.094-1.591 9.007-5.616 13.613-13.717 4.462-7.871 7.475-19.972 7.475-37.185C122.022-1.354 73.039 0 73.039 0H0v218.648s32.432.231 75.763.231c44.222 0 48.766-39.923 48.766-39.923s2.03-11.113 2.03-32.432c0-11.217-1.664-19.295-4.982-25.857-6.228-12.311-16.299-17.763-20.613-19.622l-.029-1.592zM0 246.929h33.131l43.077 86.184 43.106-86.065h34.932v218.083h-34.034V324.499l-35.831 63.986H67.14l-33.571-63.986v140.632H0zm187.51.069v218.066h118.845v-33.263h-84.977V277.852h84.977v-30.854z"/><path fill="#F5F4E9" d="M251.832 341.064h34.351v29.933h-34.351zm150.539-94.272c53.767 0 51.267 59.895 51.267 59.895s4.076 51.713-.445 105.241c-4.541 53.528-54.451 53.528-56.25 53.528l-68.494-.001V246.792h73.922zm-38.559 33.577v152.417h29.493s25.865-.447 25.865-32.195v-89.828s.445-30.394-27.219-30.394h-28.139zm120.979-33.657h33.266v218.419h-33.266zm59.269 217.147l59.272-216.549h38.726l59.863 217.739h-66.515v-29.633h21.763l-33.873-139.118-43.545 167.561zM151.968.602v218.357h33.275V33.875h30.236s29.032-3.027 30.229 29.635c1.229 32.663-25.543 33.116-25.543 33.116v53.833l30.99 69.096h40.524l-46.564-97.377s31.441-10.89 33.264-44.758c1.333-24.979 1.511-50.203-18.894-66.084-6.583-5.103-15.003-10.124-27.062-10.124-24.807 0-80.455-.61-80.455-.61zM304.854-.455h34.923V219.1h-34.923zm218.945 0h34.932V219.1h-34.932zm94.961 120.439V219.1h34.914V-.455H618.76v91.189h-29.709v29.034zM677.271-.455h114.092V33.57l-51.192-.231V219.1h-34.902V33.339l-27.998.231zm-182.363 73.94h-33.564s3.188-34.471-19.503-39.009c-22.687-4.537-37.207 10.429-37.207 24.943v98.442s-1.339 29.939 27.672 29.939c29.038 0 29.038-29.479 29.038-34.017v-20.411h-21.777v-29.039h54.897v52.619s6.337 64.417-59.421 64.417c-65.778 0-65.324-60.333-65.324-60.333V61.695S367.449.9 423.693.445c13.612-.104 20.871 0 20.871 0 11.337.916 48.991 5.453 50.345 55.812.476 17.674-.001 17.228-.001 17.228z"/></svg>